<svg xmlns="http://www.w3.org/2000/svg" viewBox="0 0 553.99 615.5"><defs><style>.cls-1{fill:#1e2057;}.cls-2{fill:#f15e22;}</style></defs><g id="Layer_2" data-name="Layer 2"><g id="Layer_1-2" data-name="Layer 1"><path class="cls-1" d="M514.78,0H39.21C17.55,0,0,15.08,0,33.68V581.82c0,18.6,17.55,33.68,39.21,33.68H514.78c21.66,0,39.21-15.08,39.21-33.68V33.68C554,15.08,536.44,0,514.78,0ZM264.18,480.55q-29.62,0-49.84-13.5t-20.22-34.64a58.36,58.36,0,0,1,2.28-15.56l51.26-187.56h-49l3.42-8.8h46.7q55.82,0,92.27-5l-59.23,214q-4,12.61-4,18.78,0,16.15,16.52,16.15,28.47,0,47.84-37.87h17.66Q330.82,480.56,264.18,480.55Zm81.16-315.69q-14.52,7.63-35.6,7.64-20.5,0-35.31-7.64t-14.81-18.2q0-10.84,14.53-18.49t35.59-7.63q21.08,0,35.6,7.63t14.53,18.49Q359.87,157.24,345.34,164.86Z"/><path class="cls-2" d="M294.37,464.41q-16.53,0-16.52-16.15,0-6.17,4-18.78l59.23-214q-36.45,5-92.27,5H202.1l-3.42,8.8h49L196.4,416.85a58.36,58.36,0,0,0-2.28,15.56q0,21.13,20.22,34.64t49.84,13.5q66.65,0,95.69-54H342.21Q322.85,464.42,294.37,464.41Z"/><path class="cls-2" d="M345.34,128.17q-14.52-7.62-35.6-7.63t-35.59,7.63q-14.53,7.64-14.53,18.49,0,10.58,14.81,18.2t35.31,7.64q21.08,0,35.6-7.64t14.53-18.2Q359.87,135.82,345.34,128.17Z"/></g></g></svg>